# xmcd
#
# Track frame offsets:
#	150
#	17623
#	31200
#	49426
#	59360
#	81298
#	94348
#	106665
#	121917
#	137625
#	150828
#	165196
#	178588
#	192871
#	207381
#	219794
#	244319
#	255946
#
# Disc length: 3630
#
# Revision: 2
# Processed by: cddbd v1.5.1PL0 Copyright (c) Steve Scherf et al.
# Submitted via: CDmax 1.8
# Normalized: r1:DSETVAR1
#
DISCID=e20e2c12
DTITLE=Various Artist - The Soul of R&B [CD1 of 2)
DYEAR=1900
DGENRE=Blues
TTITLE0=Curtis Mayfield - Superfly
TTITLE1=P.P.Arnold - The First Cut Is The Deepest
TTITLE2=Brook Benton - Rainy Night In Georgia
TTITLE3=Betty Everett - It's In His Kiss (the Shoop-Shoop Song)
TTITLE4=Solomon Burke - Sidewalks, Fences And Walls
TTITLE5=Percy Sledge - When A Man Loves A Woman
TTITLE6=Jerry Butler and Betty Everett - Let It Be Me
TTITLE7=Clarence Carter - Patches
TTITLE8=Al Wilson - Show And Tell
TTITLE9=Ike and Tina Turner - Nutbush City Limits
TTITLE10=Billy Ocean - Love Really Hurts Without You
TTITLE11=Dinah Washington - Mad About The Boy
TTITLE12=Joe Simon - Misty Blue
TTITLE13=Sly and The Family Stone - Remember Who You Are
TTITLE14=King Curtis - Soul Twist
TTITLE15=Bobby Womack and Patti Labelle - Love Has Finally Come At Last
TTITLE16=Robert Parker - Barefootin'
TTITLE17=Nina Simone - My Baby Just cares For Me
EXTD=
EXTT0=
EXTT1=
EXTT2=
EXTT3=
EXTT4=
EXTT5=
EXTT6=
EXTT7=
EXTT8=
EXTT9=
EXTT10=
EXTT11=
EXTT12=
EXTT13=
EXTT14=
EXTT15=
EXTT16=
EXTT17=
PLAYORDER=
